# xmcd
#
# Track frame offsets:
# 150
# 16087
# 25795
# 40289
# 54072
# 64113
# 80808
# 102759
# 111147
# 123488
# 139530
#
# Disc length: 2029 seconds
#
#
# Revision: 0
# Processed by: cddbd v1.5.1PL0 Copyright (c) Steve Scherf et al.
# Submitted via: FreeRIP 2.91 
#
DISCID=8407eb0b
DTITLE=Music City Bluegrass - A New Twist
DYEAR=1900
DGENRE=Bluegrass
TTITLE0=Someone Took My Place With You
TTITLE1=My Carolina Mountain Home
TTITLE2=D MArie
TTITLE3=Just Suppose
TTITLE4=Uesd To Be
TTITLE5=Satan's Jewel Crown
TTITLE6=Lonesome Old Home
TTITLE7=Let Me Love You One More Time
TTITLE8=I'll Be All Smiles Tonight
TTITLE9=Wild And Wicked World
TTITLE10=He Will Set Your Fields On Fire
EXTD=
EXTT0=
EXTT1=
EXTT2=
EXTT3=
EXTT4=
EXTT5=
EXTT6=
EXTT7=
EXTT8=
EXTT9=
EXTT10=
PLAYORDER=
